<svg width="48" height="48" viewBox="0 0 48 48" fill="none" xmlns="http://www.w3.org/2000/svg">
<path d="M27.8878 41C27.8878 42.0204 26.967 43.3912 24.4389 44.5956C22.0225 45.7467 18.5789 46.5 14.6939 46.5C10.8089 46.5 7.36525 45.7467 4.94886 44.5956C2.4208 43.3912 1.5 42.0204 1.5 41C1.5 39.9796 2.4208 38.6088 4.94886 37.4044C7.36525 36.2533 10.8089 35.5 14.6939 35.5C18.5789 35.5 22.0225 36.2533 24.4389 37.4044C26.967 38.6088 27.8878 39.9796 27.8878 41Z" stroke="#152C5B" stroke-width="3"/>
<path d="M26.9082 14.1936C26.9082 17.855 25.4395 24.6058 23.0062 30.4608C21.7942 33.3771 20.3838 35.969 18.8737 37.8046C17.3282 39.6834 15.9077 40.5 14.6939 40.5C13.48 40.5 12.0596 39.6834 10.5141 37.8046C9.00394 35.969 7.59358 33.3771 6.38156 30.4608C3.94828 24.6058 2.4796 17.855 2.4796 14.1936C2.4796 7.13414 7.99628 1.5 14.6939 1.5C21.3915 1.5 26.9082 7.13414 26.9082 14.1936Z" fill="white" stroke="#152C5B" stroke-width="3"/>
<path d="M19.0714 13.3636C19.0714 15.8742 17.0837 17.8585 14.6939 17.8585C12.304 17.8585 10.3163 15.8742 10.3163 13.3636C10.3163 10.8531 12.304 8.86874 14.6939 8.86874C17.0837 8.86874 19.0714 10.8531 19.0714 13.3636Z" stroke="#FF498B" stroke-width="3"/>
</svg>
