<svg width="48" height="48" viewBox="0 0 48 48" fill="none" xmlns="http://www.w3.org/2000/svg">
<path d="M36 23H38.5H41" stroke="#152C5B" stroke-width="3" stroke-linecap="round"/>
<circle cx="24" cy="30" r="6.5" stroke="#FF498B" stroke-width="3"/>
<mask id="path-3-inside-1" fill="white">
<path fill-rule="evenodd" clip-rule="evenodd" d="M19.2878 11C18.5035 11 17.7916 11.4584 17.4671 12.1724L15.7273 16H8C3.58172 16 0 19.5817 0 24V36C0 40.4183 3.58172 44 8 44H40C44.4183 44 48 40.4183 48 36V24C48 19.5817 44.4183 16 40 16H33.2727L31.5329 12.1724C31.2084 11.4584 30.4965 11 29.7122 11H19.2878Z"/>
</mask>
<path d="M17.4671 12.1724L14.736 10.931L14.736 10.931L17.4671 12.1724ZM15.7273 16V19H17.659L18.4584 17.2414L15.7273 16ZM33.2727 16L30.5416 17.2414L31.341 19H33.2727V16ZM31.5329 12.1724L28.8018 13.4138V13.4138L31.5329 12.1724ZM20.1982 13.4138C20.0359 13.7708 19.68 14 19.2878 14V8C17.3271 8 15.5473 9.14602 14.736 10.931L20.1982 13.4138ZM18.4584 17.2414L20.1982 13.4138L14.736 10.931L12.9962 14.7586L18.4584 17.2414ZM8 19H15.7273V13H8V19ZM3 24C3 21.2386 5.23858 19 8 19V13C1.92487 13 -3 17.9249 -3 24H3ZM3 36V24H-3V36H3ZM8 41C5.23858 41 3 38.7614 3 36H-3C-3 42.0751 1.92487 47 8 47V41ZM40 41H8V47H40V41ZM45 36C45 38.7614 42.7614 41 40 41V47C46.0751 47 51 42.0751 51 36H45ZM45 24V36H51V24H45ZM40 19C42.7614 19 45 21.2386 45 24H51C51 17.9249 46.0751 13 40 13V19ZM33.2727 19H40V13H33.2727V19ZM28.8018 13.4138L30.5416 17.2414L36.0038 14.7586L34.264 10.931L28.8018 13.4138ZM29.7122 14C29.32 14 28.9641 13.7708 28.8018 13.4138L34.264 10.931C33.4527 9.14601 31.6729 8 29.7122 8V14ZM19.2878 14H29.7122V8H19.2878V14Z" fill="#152C5B" mask="url(#path-3-inside-1)"/>
</svg>
